<svg width="42" height="42" viewBox="0 0 42 42" fill="none" xmlns="http://www.w3.org/2000/svg">
<g clip-path="url(#clip0_22728_11883)">
<path opacity="0.5" fill-rule="evenodd" clip-rule="evenodd" d="M21 40C31.4934 40 40 31.4934 40 21C40 10.5066 31.4934 2 21 2C10.5066 2 2 10.5066 2 21C2 31.4934 10.5066 40 21 40ZM21 42C32.598 42 42 32.598 42 21C42 9.40202 32.598 0 21 0C9.40202 0 0 9.40202 0 21C0 32.598 9.40202 42 21 42Z" fill="white"/>
<path fill-rule="evenodd" clip-rule="evenodd" d="M11.293 18.7072L12.7072 17.293L21.0001 25.5859L29.293 17.293L30.7072 18.7072L21.0001 28.4143L11.293 18.7072Z" fill="white"/>
</g>
<defs>
<clipPath id="clip0_22728_11883">
<rect width="42" height="42" fill="white"/>
</clipPath>
</defs>
</svg>
